<svg xmlns="http://www.w3.org/2000/svg" width="274" height="265" viewBox="0 0 174 165" version="1.1"><path d="M 75.666 40.074 C 57.495 46.325, 46 62.182, 46 81 C 46 104.889, 65.139 124, 89.065 124 C 98.122 124, 105.276 121.914, 112.723 117.100 C 119.817 112.515, 124.028 107.635, 128.253 99.102 C 134.191 87.108, 133.036 69.937, 125.486 57.978 C 115.136 41.583, 93.688 33.874, 75.666 40.074 M 82.546 62.202 C 82.310 62.916, 81.974 64.400, 81.799 65.500 C 81.524 67.224, 80.583 67.542, 74.990 67.803 C 71.420 67.969, 68.123 68.481, 67.663 68.940 C 67.202 69.399, 69.970 71.347, 73.812 73.270 C 80.381 76.556, 81.330 76.753, 89.680 76.558 C 97.617 76.373, 99.226 75.997, 104.820 73.015 C 108.262 71.180, 110.724 69.325, 110.290 68.892 C 109.855 68.460, 106.578 67.969, 103.006 67.803 C 96.657 67.507, 96.501 67.433, 96 64.500 C 95.502 61.581, 95.318 61.492, 89.231 61.202 C 84.774 60.990, 82.851 61.277, 82.546 62.202 M 83 65.550 C 83 68.022, 83.175 68.091, 88.750 67.800 C 93.844 67.534, 94.536 67.243, 94.820 65.250 C 95.121 63.129, 94.792 63, 89.070 63 C 83.230 63, 83 63.097, 83 65.550 M 67.223 86.250 C 67.500 100.500, 67.500 100.500, 70.750 100.813 C 74 101.127, 74 101.127, 74 88.631 C 74 76.136, 74 76.136, 71.096 74.068 C 69.498 72.931, 67.911 72, 67.568 72 C 67.225 72, 67.070 78.412, 67.223 86.250 M 106.752 73.841 C 104.004 75.500, 104.004 75.500, 104.002 88.250 C 104 100.153, 104.127 101, 105.918 101 C 110.885 101, 111 100.657, 111 85.893 C 111 78.252, 110.662 72.041, 110.250 72.091 C 109.838 72.142, 108.263 72.929, 106.752 73.841 M 75 88.921 L 75 101 89 101 L 103 101 103 88.892 C 103 76.783, 103 76.783, 100.250 77.461 C 98.737 77.834, 95.621 79.070, 93.325 80.209 C 89.149 82.280, 89.149 82.280, 85.285 80.266 C 83.159 79.158, 79.976 77.934, 78.210 77.546 C 75 76.841, 75 76.841, 75 88.921" stroke="none" fill="#9455a7" fill-rule="evenodd"/></svg>